<?xml version="1.0" standalone="no"?>
<!DOCTYPE svg PUBLIC "-//W3C//DTD SVG 20010904//EN"
 "http://www.w3.org/TR/2001/REC-SVG-20010904/DTD/svg10.dtd">
<svg version="1.0" xmlns="http://www.w3.org/2000/svg"
 width="276.000000pt" height="276.000000pt" viewBox="0 0 276.000000 276.000000"
 preserveAspectRatio="xMidYMid meet">
<metadata>
Created by potrace 1.11, written by Peter Selinger 2001-2013
</metadata>
<g transform="translate(0.000000,276.000000) scale(0.100000,-0.100000)"
fill="#000000" stroke="none">
<path d="M1316 2585 c-54 -38 -77 -42 -116 -20 -39 22 -67 18 -107 -18 -50
-44 -66 -49 -119 -36 -63 16 -89 6 -120 -46 -26 -45 -33 -49 -107 -59 -49 -6
-65 -20 -88 -73 -14 -34 -25 -44 -56 -52 -21 -6 -45 -11 -54 -11 -24 0 -56
-41 -64 -80 -12 -65 -16 -70 -66 -96 -60 -30 -59 -27 -68 -141 -1 -7 -20 -25
-44 -40 -66 -42 -69 -49 -61 -129 l6 -72 -36 -38 c-41 -43 -43 -59 -19 -126
l16 -47 -36 -53 c-20 -29 -37 -60 -37 -68 0 -8 16 -39 35 -67 38 -57 42 -75
20 -113 -24 -42 -18 -76 21 -120 36 -40 37 -41 30 -104 -3 -35 -4 -71 0 -80 3
-8 28 -31 55 -51 44 -32 49 -39 49 -75 0 -53 17 -86 52 -101 46 -19 78 -49 78
-73 0 -66 45 -116 103 -116 29 0 77 -35 77 -56 0 -9 13 -29 29 -45 24 -23 38
-29 74 -29 39 0 49 -5 69 -30 70 -92 66 -90 161 -75 47 8 50 7 87 -30 41 -40
77 -48 119 -26 35 19 76 12 116 -19 48 -38 80 -38 133 1 33 24 49 30 75 26 17
-3 51 -9 74 -12 40 -7 46 -5 83 29 42 38 75 45 124 26 39 -14 79 5 105 50 26
47 47 60 96 60 52 0 74 15 97 66 20 47 38 59 100 69 42 6 78 44 78 81 0 47 19
74 64 94 51 21 66 43 66 95 0 49 13 70 59 96 49 27 65 61 51 109 -16 56 -12
78 23 117 45 51 49 65 30 116 -19 51 -13 83 22 125 34 40 31 73 -10 133 -39
57 -40 63 -20 99 26 46 19 92 -21 131 l-35 34 6 76 7 77 -56 41 c-51 38 -56
45 -56 81 0 60 -14 85 -58 103 -45 18 -72 50 -72 84 0 55 -47 103 -102 103
-34 0 -62 23 -82 68 -20 45 -49 62 -106 62 -35 0 -43 5 -70 43 -51 72 -45 70
-129 62 l-76 -6 -34 35 c-39 40 -76 46 -125 21 -40 -21 -50 -19 -107 20 -28
19 -59 35 -68 35 -9 0 -38 -16 -65 -35z m277 -175 c318 -70 571 -260 722 -544
84 -158 118 -298 117 -486 0 -245 -67 -445 -210 -636 -154 -204 -354 -332
-617 -396 -127 -31 -323 -31 -452 0 -493 119 -824 532 -823 1029 1 184 33 321
116 486 110 220 330 415 568 504 170 64 404 81 579 43z"/>
<path d="M1235 2394 c-69 -10 -195 -49 -270 -82 -278 -125 -491 -375 -575
-677 -26 -95 -38 -305 -22 -405 52 -327 247 -602 535 -755 339 -180 758 -153
1073 70 214 152 367 396 416 665 17 93 4 342 -22 435 -78 279 -277 523 -525
643 -172 84 -244 102 -430 107 -82 2 -163 1 -180 -1z m191 -331 c7 -10 14 -26
14 -35 0 -10 10 -23 23 -29 39 -21 107 -98 107 -123 0 -12 -9 -31 -19 -40 -13
-12 -22 -38 -26 -77 -4 -32 -12 -62 -17 -65 -12 -8 -224 -7 -236 0 -5 3 -14
31 -22 63 -8 36 -22 66 -36 80 -13 12 -24 29 -24 37 0 20 78 104 112 122 18 9
28 23 28 37 0 13 5 28 12 35 18 18 69 15 84 -5z m36 -538 c9 -19 8 -33 -4 -64
-15 -36 -14 -40 1 -47 9 -4 27 -8 41 -8 20 -1 25 -6 22 -25 l-2 -24 21 27 c30
38 63 32 67 -11 3 -35 22 -46 22 -14 0 33 11 51 32 51 19 0 20 -4 14 -61 -6
-47 -4 -60 5 -57 7 2 17 20 22 39 12 46 44 79 78 79 53 0 63 -74 13 -100 -23
-13 -33 -30 -16 -30 24 0 75 46 94 85 31 63 73 75 62 17 -4 -19 0 -33 10 -41
9 -8 16 -20 16 -27 0 -17 12 -18 28 -2 9 9 12 5 12 -18 0 -27 -5 -32 -39 -42
-21 -7 -48 -12 -60 -12 -31 0 -38 28 -12 46 12 9 18 20 15 26 -5 7 -14 2 -27
-13 -44 -55 -103 -74 -142 -45 -17 12 -22 12 -39 0 -30 -21 -45 -17 -64 16
-11 20 -25 30 -40 30 -16 0 -26 7 -29 20 -7 27 -29 9 -38 -30 -8 -35 -33 -59
-44 -42 -5 9 -15 9 -39 0 -27 -11 -35 -10 -59 8 -27 19 -29 19 -63 2 -45 -23
-98 -24 -107 -1 -4 9 -2 18 3 20 27 10 38 23 28 33 -8 8 -16 4 -28 -14 -26
-40 -61 -59 -85 -47 -14 8 -27 8 -45 -1 -64 -29 -93 77 -37 133 31 31 59 36
92 18 18 -9 20 -17 14 -62 l-7 -52 25 23 c13 13 32 41 42 62 25 56 72 68 59
15 -8 -32 33 -90 53 -74 19 16 16 56 -4 68 -17 10 -17 12 3 28 12 10 29 38 38
63 31 80 75 105 98 55z m-434 -20 c19 -23 23 -36 18 -63 -7 -45 -48 -88 -95
-99 -34 -8 -36 -12 -43 -58 -13 -89 -68 -105 -115 -35 -29 42 -30 101 -3 173
33 87 80 119 164 113 40 -3 55 -9 74 -31z m667 -45 c0 -18 -6 -26 -23 -28 -27
-4 -40 22 -22 44 19 22 45 13 45 -16z m-761 -256 c21 -8 21 -84 1 -124 -14
-28 -14 -31 5 -50 11 -11 20 -24 20 -30 0 -20 29 -9 32 11 2 12 11 27 21 33
25 16 37 -8 25 -51 -16 -60 -2 -60 26 0 33 75 52 72 48 -8 -2 -56 -2 -58 16
-42 23 21 42 22 42 2 0 -15 -6 -21 -52 -56 -16 -11 -28 -30 -28 -42 0 -35 -41
-108 -66 -117 -68 -26 -80 49 -19 115 30 31 31 35 13 35 -13 0 -24 10 -31 30
-6 17 -14 30 -17 30 -4 0 -16 -13 -28 -30 -27 -36 -70 -40 -98 -9 -28 31 -25
165 6 237 27 63 48 80 84 66z m532 -60 c22 -32 9 -79 -21 -79 -15 0 -21 8 -23
33 -3 27 -7 32 -28 32 -55 0 -94 -50 -94 -120 0 -56 60 -95 114 -74 25 9 19
31 -10 38 -43 11 -27 40 25 44 52 4 61 -7 54 -57 l-6 -36 21 19 c12 11 22 30
22 43 0 32 17 63 35 63 8 0 15 -9 15 -20 0 -26 11 -25 33 1 25 29 51 21 57
-19 l5 -32 20 30 c33 50 89 52 101 3 8 -31 -4 -54 -34 -68 -27 -12 -29 -25 -4
-25 28 0 62 29 62 53 0 37 11 65 28 72 23 8 31 -12 21 -54 -11 -46 -11 -51 0
-51 5 0 14 15 21 33 22 58 33 77 46 77 18 0 22 -20 12 -55 -12 -43 -10 -55 7
-55 21 0 19 -35 -3 -51 -10 -8 -26 -39 -37 -69 -21 -65 -31 -79 -63 -91 -32
-12 -52 4 -52 42 0 20 13 43 41 73 31 34 35 43 19 39 -11 -3 -26 -1 -33 5 -8
7 -18 7 -27 2 -30 -19 -87 -11 -107 13 -10 13 -31 27 -46 31 -15 3 -27 13 -27
21 0 37 -30 2 -45 -52 -7 -26 -45 -32 -45 -8 0 8 -3 15 -7 15 -15 0 -53 -45
-53 -64 0 -35 -41 -107 -67 -117 -62 -23 -74 55 -17 114 l36 37 -45 0 c-70 0
-127 58 -127 129 0 37 31 111 56 132 27 23 42 27 101 28 46 1 55 -2 69 -25z"/>
<path d="M1375 2030 c3 -5 8 -10 11 -10 2 0 4 5 4 10 0 6 -5 10 -11 10 -5 0
-7 -4 -4 -10z"/>
<path d="M1283 1925 c-24 -25 -41 -50 -38 -55 7 -12 254 -13 273 -2 10 7 4 18
-20 44 -44 47 -67 58 -123 58 -43 0 -52 -4 -92 -45z"/>
<path d="M1284 1798 c4 -13 9 -34 12 -48 5 -25 7 -25 92 -23 94 2 98 5 101 71
1 21 -1 22 -105 22 -105 0 -106 0 -100 -22z"/>
<path d="M1417 1493 c-4 -3 -7 -16 -6 -27 0 -19 1 -19 10 3 10 24 8 36 -4 24z"/>
<path d="M1450 1380 c-8 -5 -25 -10 -37 -10 -19 0 -23 -6 -23 -29 0 -56 64
-67 76 -13 3 15 8 35 11 45 5 19 -4 22 -27 7z"/>
<path d="M1082 1345 c-7 -14 -12 -32 -12 -40 0 -21 18 -19 24 3 2 9 7 27 11
40 9 30 -9 28 -23 -3z"/>
<path d="M1760 1355 c-10 -12 -10 -15 4 -15 9 0 16 7 16 15 0 8 -2 15 -4 15
-2 0 -9 -7 -16 -15z"/>
<path d="M900 1491 c-53 -15 -91 -115 -75 -198 6 -35 8 -37 21 -18 16 22 19
61 4 70 -15 9 -12 35 4 35 7 0 17 18 22 43 8 36 13 42 34 42 23 0 25 -3 22
-43 -2 -41 -1 -42 18 -32 43 23 46 88 4 104 -18 7 -19 7 -54 -3z"/>
<path d="M892 1131 c-14 -41 -15 -61 -2 -61 10 0 24 62 18 82 -3 7 -10 -3 -16
-21z"/>
<path d="M874 975 c-7 -29 13 -62 29 -46 11 11 0 71 -14 71 -5 0 -11 -11 -15
-25z"/>
<path d="M1016 804 c-11 -28 -6 -39 9 -20 8 11 15 23 15 28 0 14 -18 9 -24 -8z"/>
<path d="M1720 990 c-12 -23 2 -27 19 -6 8 9 8 16 2 20 -6 4 -15 -3 -21 -14z"/>
<path d="M1842 810 c-14 -23 -16 -40 -3 -40 9 0 25 49 19 56 -2 2 -9 -6 -16
-16z"/>
<path d="M1386 804 c-11 -28 -6 -39 9 -20 8 11 15 23 15 28 0 14 -18 9 -24 -8z"/>
</g>
</svg>
